# Blender 4.0.2
# www.blender.org
o Cube
v -0.244151 0.194586 -1.098221
v 0.603798 1.535829 0.731101
v -0.301844 -0.157417 1.098161
v 0.232351 0.190528 -1.098221
v 0.258912 -0.162193 1.098161
v 0.485157 -0.237364 0.000000
v -0.540289 -0.228630 0.000000
v -0.023940 0.192710 -1.098221
v -0.024514 -0.159779 1.098161
v -0.305287 0.357885 -1.098221
v 0.386191 0.107690 1.098205
v -0.410141 0.098955 1.098206
v 0.332415 0.375891 -1.098221
v -1.087943 0.299949 0.000000
v 1.102559 0.295582 0.000000
v 0.617923 1.098221 -1.044798
v 0.298187 0.629253 -1.098221
v 0.756012 1.098221 -0.053423
v 0.053423 1.098221 -1.044798
v 0.053423 1.098221 -0.053423
v -0.602485 1.098221 -1.027062
v -0.280974 0.621026 -1.098221
v -0.736398 1.098221 -0.065669
v 0.922051 1.511633 0.659397
v -0.124582 1.098221 -1.027062
v 0.022951 0.636693 -1.098221
v -0.124582 1.098221 -0.022886
v -0.813786 1.537094 -1.027062
v -0.841188 1.537094 -0.630197
v -0.529129 1.537094 -1.027062
v -0.529129 1.537094 -0.587414
v 0.732579 1.569470 -1.044798
v 0.870668 1.569470 -0.540097
v 0.495221 1.569470 -1.044798
v 0.495221 1.569470 -0.540097
v 0.769763 1.096907 1.050809
v 0.418064 0.423948 1.098279
v 0.048307 1.098215 1.050790
v 0.587749 1.537676 1.045188
v 0.765832 1.072172 0.100943
v 0.809913 1.046263 0.005548
v 0.064356 1.096367 0.172646
v 0.925982 1.536368 1.045206
v -0.795735 1.097382 1.076653
v -0.433001 0.438034 1.098279
v -0.791806 1.061437 0.085862
v -0.811636 1.049115 0.045131
v -0.069118 1.097272 1.076216
v -0.031762 0.442995 1.097893
v -0.050894 1.101229 0.108379
v -0.006917 1.106347 0.067456
v -0.962220 1.530236 1.070249
v -0.958291 1.489280 0.633389
v -0.769192 1.530126 1.069812
v -0.750967 1.529072 0.655907
v -0.027566 -0.232997 -1.098221
v 0.485157 -0.237364 -1.098221
v -0.738176 0.299949 -1.098221
v -0.540289 -0.228630 -1.098221
v 0.772855 0.295582 -1.098221
v 0.671605 1.045036 -1.098221
v -0.670981 1.027210 -1.098221
v 0.017737 1.062713 -1.098221
v 0.001750 -1.016028 -1.920327
v 0.021918 -1.016139 -1.920196
v -0.020391 -1.007639 -1.930256
v -0.015580 -1.015932 -1.920440
v 0.029793 -1.006724 -1.931338
v 0.027099 -0.993857 -1.946568
v -0.018477 -0.994274 -1.946074
v 0.005440 -0.993479 -1.947015
v -0.305287 -0.337344 -1.499482
v -0.280974 -0.120860 -1.599983
v 0.298187 -0.114092 -1.603125
v 0.332415 -0.322531 -1.506359
v 0.232351 -0.475028 -1.435563
v -0.023940 -0.473233 -1.436397
v 0.022951 -0.107971 -1.605967
v -0.244151 -0.471690 -1.437113
v -0.763572 0.299949 1.098221
v -0.540289 -0.228630 1.098221
v -0.027566 -0.232997 1.098221
v 0.485157 -0.237364 1.098221
v 0.736499 0.295582 1.098221
v 0.812622 1.050901 1.098221
v -0.026394 1.086428 1.097832
v -0.815938 1.076666 1.098221
v -0.410141 0.098955 1.098206
v -0.249336 -0.242788 1.164898
v -0.134658 -0.243765 1.164899
v 0.211255 -0.236243 1.156672
v 0.386191 0.107690 1.098205
v 0.418064 0.423948 1.098279
v -0.031762 0.442995 1.097893
v -0.433001 0.438034 1.098279
v -0.779601 0.058781 1.414391
v -0.420053 -0.414603 1.301062
v -0.139008 -0.416997 1.301063
v 0.396950 -0.432030 1.309290
v 0.865470 0.082384 1.367899
v 0.599860 0.483662 1.449069
v -0.047806 0.685598 1.364751
v -0.595859 0.437390 1.518113
v 0.068314 -0.235025 1.156672
v -0.301844 -0.157417 1.098161
v 0.063438 -0.429190 1.309290
v -0.563638 -0.422520 1.419872
v -0.027078 -0.161734 1.099714
v -0.300621 -0.159405 1.099714
v -0.035593 -0.500825 1.366247
v -0.563578 -0.419821 1.418815
v 0.258912 -0.162193 1.098161
v -0.024514 -0.159779 1.098161
v 0.586991 -0.508104 1.367801
v -0.033128 -0.502823 1.367801
v 0.192605 -0.451372 1.014859
v 0.144156 -0.450959 1.014859
v 0.255546 -0.517733 1.066588
v 0.142504 -0.516770 1.066588
v -0.204051 -0.454974 1.015483
v -0.241503 -0.454655 1.015483
v -0.205472 -0.511549 1.059952
v -0.297257 -0.510767 1.059952
vn 0.7422 0.6636 -0.0937
vn -0.0000 0.0127 0.9999
vn 0.0532 0.9696 -0.2388
vn -0.0000 -0.0000 -1.0000
vn 0.5290 0.8485 0.0134
vn 0.1078 0.9939 0.0213
vn -0.0442 0.7731 0.6327
vn -0.0085 -1.0000 -0.0000
vn -0.0396 0.9985 -0.0382
vn -0.6684 0.7380 -0.0931
vn -0.0000 1.0000 -0.0000
vn 0.9045 -0.4266 -0.0000
vn -0.9365 -0.3506 -0.0000
vn -0.9212 -0.3891 -0.0000
vn 0.8800 -0.4750 -0.0000
vn 0.8966 0.3515 -0.2692
vn -0.8972 -0.0991 -0.4304
vn -0.9089 0.3191 0.2685
vn 0.0194 0.7182 -0.6955
vn -0.0000 0.7184 0.6956
vn -0.8937 0.3468 -0.2846
vn 0.0039 1.0000 -0.0057
vn -0.0000 0.7078 -0.7064
vn -0.7053 0.7089 -0.0000
vn -0.0710 0.9975 0.0028
vn 0.7353 0.6778 -0.0000
vn -0.9151 -0.3825 -0.1275
vn 0.9390 -0.2285 -0.2569
vn -0.7295 0.6839 -0.0000
vn 0.7420 0.6701 -0.0205
vn 0.0402 0.9523 0.3024
vn 0.1039 0.7914 0.6024
vn 0.8905 0.3449 0.2968
vn -0.7299 0.6830 -0.0277
vn 0.2419 0.9703 0.0085
vn 0.0005 0.7210 0.6930
vn -0.0435 0.9619 -0.2698
vn -0.0335 0.8009 -0.5979
vn -0.6314 0.7746 -0.0368
vn 0.9402 -0.3405 0.0050
vn -0.1779 0.9796 -0.0934
vn -0.9332 -0.3585 0.0252
vn 0.0006 0.0158 0.9999
vn -0.0802 0.7735 -0.6288
vn -0.0000 -0.7639 -0.6454
vn 0.9214 -0.2009 -0.3327
vn 0.8498 -0.4943 0.1829
vn -0.0085 -0.6657 0.7462
vn 0.0176 0.3589 -0.9332
vn -0.0487 0.3598 -0.9318
vn -0.0071 -0.6657 0.7462
vn -0.9142 -0.4045 0.0248
vn -0.8004 -0.2997 0.5192
vn -0.0039 -0.4534 0.8913
vn -0.0290 0.5631 -0.8259
vn 0.0210 0.5618 -0.8270
vn -0.0039 -0.4528 0.8916
vn 0.7971 -0.2730 0.5386
vn 0.9839 0.0900 -0.1541
vn -0.9867 0.0912 -0.1348
vn 0.0001 -0.0000 1.0000
vn -0.0000 0.0008 1.0000
vn -0.0003 -0.0000 1.0000
vn 0.0001 -0.0002 1.0000
vn 0.0010 0.0001 1.0000
vn -0.0002 -0.0000 1.0000
vn -0.0004 0.0004 1.0000
vn 0.4694 -0.2212 -0.8549
vn 0.0616 -0.1110 0.9919
vn -0.0079 -0.9302 0.3670
vn -0.6030 0.4694 -0.6450
vn 0.8904 -0.0896 -0.4462
vn 0.7743 0.3001 -0.5571
vn -0.6153 -0.2845 -0.7351
vn 0.0319 0.7405 -0.6713
vn -0.4459 0.8785 -0.1716
vn -0.0053 -0.6179 -0.7862
vn -0.1753 -0.7300 -0.6606
vn 0.6236 0.2732 0.7325
vn -0.0052 -0.6179 -0.7863
vn -0.0053 -0.6179 -0.7863
vn -0.5973 -0.3055 -0.7415
vn 0.0047 0.5501 -0.8351
vn -0.9533 -0.1715 -0.2487
vn -0.0080 -0.9414 0.3371
vn -0.7728 0.3464 -0.5318
vn 0.0049 0.5764 -0.8171
vn 0.9643 -0.1782 -0.1959
vn 0.6537 0.7513 -0.0911
vn -0.0000 0.0128 0.9999
vn 0.0412 0.9969 0.0667
vn 0.5256 0.8504 0.0210
vn -0.1589 0.9873 -0.0050
vn -0.0852 0.7789 0.6213
vn 0.2421 0.9703 -0.0000
vn -0.6366 0.7656 -0.0930
vn 0.6385 -0.7396 0.2128
vn -0.6781 -0.7025 -0.2160
vn -0.6803 -0.7049 0.2009
vn 0.6412 -0.7428 -0.1925
vn 0.9834 0.1329 -0.1234
vn -0.9335 -0.2101 -0.2904
vn -0.9977 -0.0673 -0.0023
vn -0.0000 0.8328 -0.5535
vn -0.9882 0.0913 -0.1233
vn 0.0612 0.9960 -0.0645
vn -0.0441 0.8559 -0.5153
vn 0.0622 0.9974 -0.0360
vn -0.0272 0.9206 0.3895
vn -0.8993 -0.4330 -0.0621
vn 0.9248 -0.3580 -0.1288
vn 0.4988 0.8667 -0.0049
vn 0.0013 0.7183 0.6958
vn -0.0000 0.9977 -0.0671
vn 0.9950 -0.1003 -0.0020
vn -0.4904 0.8711 -0.0248
vn -0.0996 0.9949 0.0173
vn -0.0107 0.8851 0.4652
vn -0.0722 0.9963 0.0471
vn -0.0756 0.7938 -0.6035
vn -0.6234 0.7818 -0.0130
vn 0.9422 -0.3348 0.0119
vn 0.0006 1.0000 -0.0025
vn -0.9275 -0.3736 0.0099
vn 0.0023 0.0157 0.9999
vn -0.0223 0.7737 -0.6331
vn -0.0000 0.9988 -0.0490
vn -0.0000 -0.7639 -0.6453
vn 0.8724 -0.0806 -0.4822
vn 0.8582 -0.4846 0.1691
vn -0.0071 -0.6656 0.7463
vn 0.0255 0.3589 -0.9330
vn -0.0336 0.3594 -0.9326
vn -0.8963 -0.4379 0.0693
vn -0.8855 -0.2107 0.4142
vn -0.0061 -0.4528 0.8916
vn -0.0400 0.5598 -0.8277
vn 0.0152 0.5633 -0.8261
vn -0.0061 -0.4521 0.8920
vn 0.6828 -0.3686 0.6308
vn 0.9723 0.1314 -0.1934
vn -0.9923 0.0618 -0.1070
vn 0.0003 -0.0001 1.0000
vn -0.0001 -0.0000 1.0000
vn 0.0002 -0.0000 1.0000
vn 0.0005 0.0004 1.0000
vn -0.0001 -0.0002 1.0000
vn -0.0009 0.0001 1.0000
vn 0.1749 -0.0827 0.9811
vn -0.0048 -0.5663 0.8242
vn -0.2901 -0.1193 0.9495
vn 0.0326 0.4723 0.8808
vn 0.0390 -0.0821 0.9959
vn -0.9304 -0.0627 -0.3610
vn 0.4547 0.4557 -0.7652
vn -0.6118 -0.2583 -0.7477
vn 0.3197 0.8927 -0.3176
vn -0.0098 0.7396 -0.6730
vn -0.1467 -0.3579 -0.9222
vn -0.1942 -0.6755 -0.7113
vn -0.1711 -0.9528 -0.2508
vt 0.866527 0.618919
vt 0.875000 0.500112
vt 0.877406 0.618771
vt 0.867717 0.744603
vt 0.757386 0.744602
vt 0.867114 0.636490
vt 0.748724 0.632629
vt 0.874336 0.626015
vt 0.542923 0.426074
vt 0.500000 0.500000
vt 0.495251 0.431142
vt 0.739428 0.747494
vt 0.742240 0.637351
vt 0.759838 0.644653
vt 0.746004 0.749957
vt 0.748941 0.632690
vt 0.636259 0.617525
vt 0.731020 0.622395
vt 0.375000 0.500000
vt 0.375000 0.625000
vt 0.250000 0.750000
vt 0.753083 0.500000
vt 0.749278 0.632695
vt 0.613881 0.500000
vt 0.638022 0.508099
vt 0.561486 0.806737
vt 0.560629 0.871050
vt 0.500000 0.000000
vt 0.375000 0.125000
vt 0.375000 0.000000
vt 0.500000 0.750000
vt 0.375000 0.750000
vt 0.500000 0.250000
vt 0.375000 0.250000
vt 0.617913 0.125014
vt 0.500000 0.125000
vt 0.495251 0.431141
vt 0.617759 0.630491
vt 0.500000 0.625000
vt 0.865225 0.506081
vt 0.764718 0.498366
vt 0.875000 0.500000
vt 0.758440 0.618919
vt 0.618344 0.629348
vt 0.625000 0.500000
vt 0.727124 0.508099
vt 0.759740 0.506081
vt 0.625650 0.630385
vt 0.749043 0.632558
vt 0.874999 0.749849
vt 0.874271 0.750000
vt 0.753783 0.750530
vt 0.748791 0.632432
vt 0.617491 0.123810
vt 0.625000 0.749907
vt 0.628914 0.634774
vt 0.628311 0.747545
vt 0.625227 0.750000
vt 0.462615 0.421731
vt 0.462146 0.326373
vt 0.499369 0.312997
vt 0.375000 0.375000
vt 0.461321 0.377431
vt 0.544605 0.320701
vt 0.616717 0.250000
vt 0.619471 0.372078
vt 0.544780 0.370491
vt 0.499369 0.312997
vt 0.461321 0.377431
vt 0.544780 0.370491
vt 0.544605 0.320701
vt 0.462615 0.421731
vt 0.125000 0.625000
vt 0.125000 0.500000
vt 0.501328 0.805550
vt 0.449259 0.817961
vt 0.375000 0.875000
vt 0.448837 0.931660
vt 0.447555 0.874207
vt 0.503552 0.944860
vt 0.375000 1.000000
vt 0.559436 0.943338
vt 0.500000 1.000000
vt 0.623148 0.870675
vt 0.621625 0.750000
vt 0.617631 1.000000
vt 0.449243 0.818492
vt 0.447940 0.861499
vt 0.448837 0.831873
vt 0.448458 0.914681
vt 0.448569 0.919657
vt 0.447569 0.873752
vt 0.449244 0.818461
vt 0.447563 0.873936
vt 0.449249 0.818268
vt 0.448092 0.856483
vt 0.448678 0.837135
vt 0.447906 0.889924
vt 0.447799 0.885149
vt 0.250000 0.500000
vt 0.618260 0.629259
vt 0.616717 0.250000
vt 0.739949 0.500000
vt 0.750554 0.632706
vt 0.874331 0.630515
vt 0.617631 0.000000
vt 0.625632 0.632244
vt 0.742663 0.749947
vt 0.125000 0.750000
s 0
f 18/1/1 41/3/1 61/2/1
f 36/4/2 43/4/2 39/5/2
f 40/6/3 41/8/3 51/7/3
f 22/9/4 10/11/4 58/10/4
f 48/12/5 50/13/5 55/13/5
f 42/14/6 51/16/6 86/15/6
f 23/17/7 27/18/7 31/18/7
f 59/19/8 82/21/8 7/20/8
f 27/18/9 51/23/9 63/22/9
f 23/17/10 21/25/10 62/24/10
f 45/26/11 95/26/11 94/27/11
f 84/28/12 83/30/12 6/29/12
f 58/10/13 59/19/13 7/20/13
f 7/20/14 81/32/14 80/31/14
f 6/29/15 57/34/15 60/33/15
f 41/35/16 15/36/16 60/33/16
f 72/37/17 73/9/17 70/9/17
f 47/38/18 14/39/18 80/31/18
f 16/40/19 61/42/19 63/41/19
f 18/1/20 33/1/20 35/43/20
f 58/10/21 14/39/21 47/44/21
f 2/14/22 39/5/22 43/4/22
f 62/45/23 21/25/23 25/46/23
f 20/43/24 19/47/24 63/22/24
f 47/48/25 51/49/25 27/18/25
f 30/46/11 28/25/11 29/17/11
f 21/25/4 28/25/4 30/46/4
f 25/46/26 30/46/26 31/18/26
f 21/25/27 23/17/27 29/17/27
f 32/40/11 34/47/11 35/43/11
f 16/40/28 32/40/28 33/1/28
f 19/47/29 20/43/29 35/43/29
f 16/40/4 19/47/4 34/47/4
f 40/6/30 36/4/30 85/50/30
f 38/5/31 86/52/31 85/51/31
f 51/53/32 41/8/32 18/1/32
f 84/28/33 15/36/33 41/54/33
f 87/55/34 44/57/34 46/56/34
f 50/13/35 48/12/35 86/15/35
f 48/12/36 44/57/36 87/58/36
f 47/48/37 46/56/37 50/13/37
f 40/6/38 42/14/38 2/14/38
f 38/5/39 39/5/39 2/14/39
f 36/4/40 40/6/40 24/6/40
f 55/13/41 53/56/41 52/57/41
f 44/57/42 52/57/42 53/56/42
f 44/57/43 48/12/43 54/12/43
f 46/56/44 53/56/44 55/13/44
f 1/59/4 59/19/4 58/10/4
f 4/60/4 13/61/4 60/33/4
f 1/59/4 8/63/4 56/62/4
f 17/64/4 61/65/4 60/33/4
f 22/9/4 62/24/4 63/66/4
f 17/64/4 26/67/4 63/66/4
f 4/60/4 57/34/4 56/62/4
f 65/60/45 70/9/45 69/64/45
f 75/68/46 68/61/46 69/64/46
f 76/60/47 65/60/47 68/61/47
f 77/69/48 64/63/48 65/60/48
f 78/70/49 74/71/49 69/64/49
f 78/70/50 71/67/50 70/9/50
f 77/69/51 79/72/51 67/59/51
f 79/72/52 72/37/52 66/11/52
f 1/59/53 10/11/53 72/37/53
f 8/63/54 1/59/54 79/72/54
f 22/9/55 26/67/55 78/70/55
f 17/64/56 74/71/56 78/70/56
f 4/60/57 8/63/57 77/69/57
f 4/60/58 76/60/58 75/68/58
f 13/61/59 75/68/59 74/71/59
f 10/11/60 22/9/60 73/9/60
f 82/21/8 57/74/8 6/73/8
f 12/75/61 80/31/61 81/32/61
f 3/76/62 81/32/62 82/77/62
f 5/78/62 9/79/62 82/77/62
f 11/80/63 5/78/63 83/81/63
f 37/82/64 11/80/64 84/83/64
f 45/26/65 49/27/65 86/84/65
f 45/26/66 87/85/66 80/31/66
f 37/82/67 85/86/67 86/84/67
f 92/80/68 100/80/68 114/78/68
f 11/80/11 92/80/11 112/78/11
f 9/79/11 113/79/11 105/76/11
f 12/75/11 88/75/11 95/26/11
f 37/82/11 93/82/11 92/80/11
f 5/78/11 112/78/11 113/79/11
f 3/76/11 105/76/11 88/75/11
f 49/27/11 94/27/11 93/82/11
f 107/87/69 101/82/69 103/26/69
f 98/88/70 97/89/70 123/89/70
f 88/75/71 96/75/71 103/26/71
f 92/80/72 93/82/72 101/82/72
f 91/90/73 99/91/73 118/91/73
f 105/76/74 107/87/74 96/75/74
f 93/82/75 94/27/75 102/27/75
f 95/26/76 103/26/76 102/27/76
f 108/92/77 109/93/77 105/76/77
f 110/94/78 115/79/78 107/87/78
f 111/95/79 107/87/79 105/76/79
f 108/92/80 113/79/80 115/79/80
f 90/96/81 89/97/81 109/93/81
f 97/89/81 98/88/81 110/94/81
f 97/89/82 111/95/82 109/93/82
f 90/96/81 108/92/81 110/94/81
f 104/98/81 113/79/81 112/78/81
f 99/91/81 114/78/81 115/79/81
f 99/91/81 91/90/81 112/78/81
f 106/99/81 115/79/81 113/79/81
f 116/90/81 118/91/81 119/99/81
f 91/90/83 116/90/83 117/98/83
f 104/98/84 117/98/84 119/99/84
f 106/99/85 119/99/85 118/91/85
f 121/97/81 120/96/81 122/88/81
f 89/97/86 121/97/86 123/89/86
f 89/97/87 90/96/87 120/96/87
f 98/88/88 122/88/88 120/96/88
f 18/1/89 61/2/89 16/40/89
f 36/4/90 39/5/90 38/5/90
f 40/6/91 51/7/91 42/14/91
f 22/9/4 58/10/4 62/24/4
f 48/12/92 55/13/92 54/12/92
f 42/14/93 86/15/93 38/5/93
f 23/17/94 31/18/94 29/17/94
f 82/21/8 59/19/8 56/100/8
f 7/20/8 82/21/8 81/32/8
f 27/18/95 63/22/95 25/46/95
f 23/17/96 62/24/96 47/101/96
f 45/26/11 94/27/11 49/27/11
f 84/28/97 6/29/97 15/36/97
f 58/10/98 7/20/98 14/39/98
f 7/20/99 80/31/99 14/39/99
f 6/29/100 60/33/100 15/36/100
f 41/35/101 60/33/101 61/102/101
f 72/37/102 70/9/102 66/11/102
f 47/38/103 80/31/103 87/85/103
f 16/40/104 63/41/104 19/47/104
f 18/1/20 35/43/20 20/43/20
f 58/10/105 47/44/105 62/24/105
f 2/14/106 43/4/106 24/6/106
f 62/45/107 25/46/107 63/103/107
f 20/43/108 63/22/108 51/104/108
f 47/48/109 27/18/109 23/17/109
f 30/46/11 29/17/11 31/18/11
f 21/25/4 30/46/4 25/46/4
f 25/46/26 31/18/26 27/18/26
f 21/25/110 29/17/110 28/25/110
f 32/40/11 35/43/11 33/1/11
f 16/40/111 33/1/111 18/1/111
f 19/47/29 35/43/29 34/47/29
f 16/40/4 34/47/4 32/40/4
f 40/6/112 85/50/112 41/105/112
f 38/5/113 85/51/113 36/4/113
f 51/53/114 18/1/114 20/43/114
f 84/28/115 41/54/115 85/106/115
f 87/55/116 46/56/116 47/107/116
f 50/13/117 86/15/117 51/16/117
f 48/12/118 87/58/118 86/108/118
f 47/48/119 50/13/119 51/49/119
f 40/6/120 2/14/120 24/6/120
f 38/5/121 2/14/121 42/14/121
f 36/4/122 24/6/122 43/4/122
f 55/13/123 52/57/123 54/12/123
f 44/57/124 53/56/124 46/56/124
f 44/57/125 54/12/125 52/57/125
f 46/56/126 55/13/126 50/13/126
f 1/59/4 58/10/4 10/11/4
f 4/60/4 60/33/4 57/34/4
f 1/59/4 56/62/4 59/19/4
f 17/64/4 60/33/4 13/61/4
f 22/9/4 63/66/4 26/67/4
f 17/64/4 63/66/4 61/65/4
f 4/60/4 56/62/4 8/63/4
f 70/9/45 67/59/45 66/11/45
f 67/59/127 65/60/127 64/63/127
f 65/60/45 69/64/45 68/61/45
f 69/64/128 70/9/128 71/67/128
f 70/9/45 65/60/45 67/59/45
f 75/68/129 69/64/129 74/71/129
f 76/60/130 68/61/130 75/68/130
f 77/69/131 65/60/131 76/60/131
f 78/70/132 69/64/132 71/67/132
f 78/70/133 70/9/133 73/9/133
f 77/69/48 67/59/48 64/63/48
f 79/72/134 66/11/134 67/59/134
f 1/59/135 72/37/135 79/72/135
f 8/63/136 79/72/136 77/69/136
f 22/9/137 78/70/137 73/9/137
f 17/64/138 78/70/138 26/67/138
f 4/60/139 77/69/139 76/60/139
f 4/60/140 75/68/140 13/61/140
f 13/61/141 74/71/141 17/64/141
f 10/11/142 73/9/142 72/37/142
f 57/74/8 82/21/8 56/100/8
f 82/21/8 6/73/8 83/109/8
f 12/75/143 81/32/143 3/76/143
f 3/76/62 82/77/62 9/79/62
f 5/78/62 82/77/62 83/81/62
f 11/80/144 83/81/144 84/83/144
f 37/82/145 84/83/145 85/86/145
f 45/26/146 86/84/146 87/85/146
f 45/26/147 80/31/147 12/75/147
f 37/82/148 86/84/148 49/27/148
f 92/80/68 114/78/68 112/78/68
f 11/80/11 112/78/11 5/78/11
f 9/79/11 105/76/11 3/76/11
f 12/75/11 95/26/11 45/26/11
f 37/82/11 92/80/11 11/80/11
f 5/78/11 113/79/11 9/79/11
f 3/76/11 88/75/11 12/75/11
f 49/27/11 93/82/11 37/82/11
f 101/82/149 114/78/149 100/80/149
f 114/78/150 107/87/150 115/79/150
f 107/87/151 103/26/151 96/75/151
f 103/26/152 101/82/152 102/27/152
f 101/82/153 107/87/153 114/78/153
f 98/88/70 123/89/70 122/88/70
f 88/75/154 103/26/154 95/26/154
f 92/80/155 101/82/155 100/80/155
f 91/90/73 118/91/73 116/90/73
f 105/76/156 96/75/156 88/75/156
f 93/82/157 102/27/157 101/82/157
f 95/26/158 102/27/158 94/27/158
f 108/92/77 105/76/77 113/79/77
f 110/94/159 107/87/159 111/95/159
f 111/95/160 105/76/160 109/93/160
f 108/92/81 115/79/81 110/94/81
f 90/96/81 109/93/81 108/92/81
f 97/89/161 110/94/161 111/95/161
f 97/89/81 109/93/81 89/97/81
f 90/96/81 110/94/81 98/88/81
f 104/98/81 112/78/81 91/90/81
f 99/91/81 115/79/81 106/99/81
f 99/91/81 112/78/81 114/78/81
f 106/99/81 113/79/81 104/98/81
f 116/90/81 119/99/81 117/98/81
f 91/90/83 117/98/83 104/98/83
f 104/98/84 119/99/84 106/99/84
f 106/99/85 118/91/85 99/91/85
f 121/97/81 122/88/81 123/89/81
f 89/97/86 123/89/86 97/89/86
f 89/97/87 120/96/87 121/97/87
f 98/88/88 120/96/88 90/96/88
